<?xml version="1.0" encoding="UTF-8"?>
<svg width="24px" height="24px" viewBox="0 0 24 24" version="1.1" xmlns="http://www.w3.org/2000/svg" xmlns:xlink="http://www.w3.org/1999/xlink">
    <title>Icon / Menu / reorder</title>
    <g id="Icon-/-Menu-/-reorder" stroke="none" stroke-width="1" fill="none" fill-rule="evenodd">
        <path d="M20.4060728,15.0078431 C21.2543281,15.0078431 21.9419748,15.6954899 21.9419748,16.5437451 L21.9419748,19.064098 C21.9419748,19.9123532 21.2543281,20.6 20.4060728,20.6 L17.9103341,20.6 C17.0620789,20.6 16.3744321,19.9123532 16.3744321,19.064098 L16.3744321,16.5437451 C16.3744321,15.6954899 17.0620789,15.0078431 17.9103341,15.0078431 L20.4060728,15.0078431 Z M16.6624648,3.4 C18.1998993,3.4 19.4462362,4.64633689 19.4462362,6.18377135 L19.446,10.561 L21.5745455,8.42203928 C21.782239,8.21317523 22.105482,8.18912467 22.339778,8.35046222 L22.4230702,8.41965499 C22.6580423,8.65331023 22.6591098,9.03320772 22.4254545,9.26817977 L19.3380547,12.3729793 C19.0636746,12.6458372 18.6245193,12.6446032 18.3544177,12.3729793 L15.2670178,9.26817977 C15.0333625,9.03320772 15.03443,8.65331023 15.2694021,8.41965499 C15.5043741,8.18599974 15.8842716,8.18706723 16.1179268,8.42203928 L18.246,10.563 L18.2462362,6.18377135 C18.2462362,5.30907859 17.5371576,4.6 16.6624648,4.6 L6.36754271,4.6 C5.49284994,4.6 4.78377135,5.30907859 4.78377135,6.18377135 L4.783,15.007 L5.4316407,15.0078431 C6.27989595,15.0078431 6.96754271,15.6954899 6.96754271,16.5437451 L6.96754271,19.064098 C6.96754271,19.9123532 6.27989595,20.6 5.4316407,20.6 L2.93590201,20.6 C2.08764675,20.6 1.4,19.9123532 1.4,19.064098 L1.4,16.5437451 C1.4,15.6954899 2.08764675,15.0078431 2.93590201,15.0078431 L3.583,15.007 L3.58377135,6.18377135 C3.58377135,4.64633689 4.83010824,3.4 6.36754271,3.4 L16.6624648,3.4 Z M12.9188568,15.0078431 C13.767112,15.0078431 14.4547588,15.6954899 14.4547588,16.5437451 L14.4547588,19.064098 C14.4547588,19.9123532 13.767112,20.6 12.9188568,20.6 L10.4231181,20.6 C9.57486282,20.6 8.88721607,19.9123532 8.88721607,19.064098 L8.88721607,16.5437451 C8.88721607,15.6954899 9.57486282,15.0078431 10.4231181,15.0078431 L12.9188568,15.0078431 Z M20.4060728,16.2078431 L17.9103341,16.2078431 C17.7248206,16.2078431 17.5744321,16.3582316 17.5744321,16.5437451 L17.5744321,19.064098 C17.5744321,19.2496115 17.7248206,19.4 17.9103341,19.4 L20.4060728,19.4 C20.5915864,19.4 20.7419748,19.2496115 20.7419748,19.064098 L20.7419748,16.5437451 C20.7419748,16.3582316 20.5915864,16.2078431 20.4060728,16.2078431 Z M5.4316407,16.2078431 L2.93590201,16.2078431 C2.75038845,16.2078431 2.6,16.3582316 2.6,16.5437451 L2.6,19.064098 C2.6,19.2496115 2.75038845,19.4 2.93590201,19.4 L5.4316407,19.4 C5.61715425,19.4 5.76754271,19.2496115 5.76754271,19.064098 L5.76754271,16.5437451 C5.76754271,16.3582316 5.61715425,16.2078431 5.4316407,16.2078431 Z M12.9188568,16.2078431 L10.4231181,16.2078431 C10.2376045,16.2078431 10.0872161,16.3582316 10.0872161,16.5437451 L10.0872161,19.064098 C10.0872161,19.2496115 10.2376045,19.4 10.4231181,19.4 L12.9188568,19.4 C13.1043703,19.4 13.2547588,19.2496115 13.2547588,19.064098 L13.2547588,16.5437451 C13.2547588,16.3582316 13.1043703,16.2078431 12.9188568,16.2078431 Z" id="Shape" fill="#FFFFFF" fill-rule="nonzero"></path>
    </g>
</svg>