<?xml version="1.0" encoding="UTF-8"?>
<svg width="24px" height="24px" viewBox="0 0 24 24" version="1.1" xmlns="http://www.w3.org/2000/svg" xmlns:xlink="http://www.w3.org/1999/xlink">
    <title>Icon / Menu / birthday_add</title>
    <g id="Icon-/-Menu-/-birthday_add" stroke="none" stroke-width="1" fill="none" fill-rule="evenodd">
        <path d="M19.4857266,16.2888889 C19.8170975,16.2888889 20.0857266,16.557518 20.0857266,16.8888889 L20.0856667,18.7328889 L21.9305556,18.7333333 C22.2287893,18.7333333 22.4762023,18.9509229 22.5227026,19.2360102 L22.5305556,19.3333333 C22.5305556,19.6647042 22.2619264,19.9333333 21.9305556,19.9333333 L20.0856667,19.9328889 L20.0857266,21.7777778 C20.0857266,22.0760115 19.868137,22.3234245 19.5830498,22.3699248 L19.4857266,22.3777778 C19.1543558,22.3777778 18.8857266,22.1091486 18.8857266,21.7777778 L18.8856667,19.9328889 L17.0416667,19.9333333 C16.7434329,19.9333333 16.4960199,19.7157437 16.4495197,19.4306564 L16.4416667,19.3333333 C16.4416667,19.0019625 16.7102958,18.7333333 17.0416667,18.7333333 L18.8856667,18.7328889 L18.8857266,16.8888889 C18.8857266,16.5906551 19.1033163,16.3432421 19.3884035,16.2967419 L19.4857266,16.2888889 Z M8.41204757,10.3213892 C8.4968615,10.6417222 8.30593555,10.9701587 7.98560254,11.0549726 C6.00141779,11.5803212 4.96111111,12.4866846 4.96111111,13.4472478 C4.96111111,13.5837542 4.98907974,13.7199344 5.04305686,13.8546242 C5.05815315,13.8780132 5.06968916,13.9034625 5.07949993,13.9299664 C5.67337842,15.1862671 8.51737301,16.291625 12,16.291625 C15.9250424,16.291625 19.0388889,14.8875907 19.0388889,13.4472478 C19.0388889,12.5127848 18.0774561,11.638341 16.2036879,11.1068602 C15.8848931,11.0164364 15.6997618,10.684699 15.7901857,10.3659042 C15.8806095,10.0471093 16.2123468,9.86197804 16.5311417,9.95240189 C18.8627692,10.6137512 20.2388889,11.8653615 20.2388889,13.4472478 C20.2388889,13.979393 20.0501074,14.4768826 19.7060685,14.9283577 C19.6140075,14.9115452 19.5205276,14.9027778 19.425,14.9027778 C18.6281077,14.9027778 17.9737164,15.5128973 17.9034658,16.2914966 L17.9034247,16.3114033 C16.4008483,17.0540936 14.3028164,17.491625 12,17.491625 C9.47842329,17.491625 7.20238688,16.967017 5.68481102,16.0915954 L6.42111111,18.7214444 L6.44,18.7222222 L6.44511111,18.8074444 L6.45530551,18.8430624 L6.4709096,18.9292533 C6.76328017,19.9158038 9.09544378,20.8722222 12,20.8722222 C13.262879,20.8722222 14.4175503,20.6914166 15.3434009,20.4059417 C15.6196573,20.6869274 16.004765,20.8611111 16.4305556,20.8611111 L17.2836209,20.8606349 C16.0386964,21.6207641 14.1238391,22.0722222 12,22.0722222 C8.52835644,22.0722222 5.61510021,20.8659524 5.27347003,19.0770457 L3.95558458,14.3602924 C3.82830877,14.0698882 3.76111111,13.7647359 3.76111111,13.4472478 C3.76111111,11.8222874 5.22885268,10.5435228 7.67846416,9.89494413 C7.99879717,9.81013021 8.32723365,10.0010562 8.41204757,10.3213892 Z M12.4583333,7.42777778 C13.380342,7.42777778 14.1277778,8.17521351 14.1277778,9.09722222 L14.1277778,13.0694444 C14.1277778,13.9914532 13.380342,14.7388889 12.4583333,14.7388889 L11.8472222,14.7388889 C10.9252135,14.7388889 10.1777778,13.9914532 10.1777778,13.0694444 L10.1777778,9.09722222 C10.1777778,8.17521351 10.9252135,7.42777778 11.8472222,7.42777778 L12.4583333,7.42777778 Z M12.4583333,8.62777778 L11.8472222,8.62777778 C11.5879552,8.62777778 11.3777778,8.83795521 11.3777778,9.09722222 L11.3777778,13.0694444 C11.3777778,13.3287115 11.5879552,13.5388889 11.8472222,13.5388889 L12.4583333,13.5388889 C12.7176003,13.5388889 12.9277778,13.3287115 12.9277778,13.0694444 L12.9277778,9.09722222 C12.9277778,8.83795521 12.7176003,8.62777778 12.4583333,8.62777778 Z M12.0207549,1.46944444 C12.8988738,1.46944444 14.1277778,3.40600437 14.1277778,4.64408449 C14.1277778,6.06372135 13.4385567,6.82401696 12,6.82401696 C10.3912998,6.82401696 9.40287158,5.20228362 10.2271046,3.79129771 L10.3125678,3.6554701 C10.6068441,3.21972221 11.1748869,2.01278865 11.1599792,2.03824823 C11.3659094,1.68655903 11.6259528,1.46944444 12.0207549,1.46944444 Z M12.1011111,2.85144444 L12.0713457,2.91751396 L11.8811707,3.30172279 L11.6899023,3.66987931 C11.557639,3.91763569 11.4205876,4.1589191 11.3070312,4.32706715 C10.8867233,4.94943561 11.2769618,5.62401696 12,5.62401696 C12.7481114,5.62401696 12.9277778,5.42582286 12.9277778,4.64408449 C12.9277778,4.29594473 12.7310746,3.77237759 12.4219529,3.28525029 C12.3528553,3.1763634 12.281237,3.07447531 12.2108288,2.98385177 L12.1011111,2.85144444 Z" id="Shape" fill="#FFFFFF" fill-rule="nonzero"></path>
    </g>
</svg>