<?xml version="1.0" encoding="UTF-8"?>
<svg width="24px" height="24px" viewBox="0 0 24 24" version="1.1" xmlns="http://www.w3.org/2000/svg" xmlns:xlink="http://www.w3.org/1999/xlink">
    <title>Icon / Menu / new_topic</title>
    <g id="Icon-/-Menu-/-new_topic" stroke="none" stroke-width="1" fill="none" fill-rule="evenodd">
        <path d="M12,3.15416667 C12.3865993,3.15416667 12.7,3.46756734 12.7,3.85416667 C12.7,4.24076599 12.3865993,4.55416667 12,4.55416667 L7.24826389,4.55416667 C5.76035508,4.55416667 4.55416667,5.76035508 4.55416667,7.24826389 L4.55416667,16.7517361 C4.55416667,18.2396449 5.76035508,19.4458333 7.24826389,19.4458333 L16.7517361,19.4458333 C18.2396449,19.4458333 19.4458333,18.2396449 19.4458333,16.7517361 L19.4458333,12 C19.4458333,11.6134007 19.759234,11.3 20.1458333,11.3 C20.5324327,11.3 20.8458333,11.6134007 20.8458333,12 L20.8458333,16.7517361 C20.8458333,19.0128436 19.0128436,20.8458333 16.7517361,20.8458333 L7.24826389,20.8458333 C4.98715643,20.8458333 3.15416667,19.0128436 3.15416667,16.7517361 L3.15416667,7.24826389 C3.15416667,4.98715643 4.98715643,3.15416667 7.24826389,3.15416667 L12,3.15416667 Z" id="Path" fill="#FFFFFF" fill-rule="nonzero"></path>
        <path d="M19.3511597,5.34872828 C20.2469248,6.24449337 20.2469248,7.69681554 19.3511597,8.59258064 L12.7489306,15.1948097 C12.4577752,15.4859651 12.0995331,15.7011118 11.7057162,15.8213249 L10.029497,16.3329929 C9.10119412,16.6163585 8.11894274,16.0935336 7.83557714,15.1652307 C7.71876473,14.7825544 7.73602986,14.3714738 7.88451862,13.99994 L8.70227653,11.9538276 C8.8286621,11.6375983 9.01800726,11.3503585 9.2588125,11.1095532 L15.5634724,4.80489335 C16.4592375,3.90912826 17.9115597,3.90912826 18.8073247,4.80489335 L19.3511597,5.34872828 Z M18.3612102,6.33867777 L17.8173753,5.79484285 C17.4683442,5.44581176 16.902453,5.44581176 16.5534219,5.79484285 L10.248762,12.0995027 C10.1421189,12.2061458 10.0582655,12.3333529 10.0022944,12.4733983 L9.18453646,14.5195106 C9.15433809,14.59507 9.15082685,14.678672 9.17458316,14.7564974 C9.23221162,14.9452877 9.43197346,15.0516153 9.62076372,14.9939869 L11.296983,14.4823189 C11.4713888,14.4290813 11.63004,14.3338014 11.7589811,14.2048602 L18.3612102,7.60263114 C18.7102413,7.25360006 18.7102413,6.68770886 18.3612102,6.33867777 Z" id="Shape" fill="#FFFFFF" fill-rule="nonzero"></path>
        <polygon id="Path" fill="#FFFFFF" fill-rule="nonzero" points="15.5907211 6.54669192 17.5755336 8.53150439 16.5855841 9.52145388 14.6007716 7.53664141"></polygon>
    </g>
</svg>